<?xml version="1.0" encoding="UTF-8"?>
<svg id="interactive-odontogram" xmlns="http://www.w3.org/2000/svg" viewBox="0 0 1100 800" width="1100" height="800" role="img" aria-labelledby="title desc">
  <title id="title">Interactive Odontogram SVG</title>
  <desc id="desc">Adult FDI odontogram with clickable permanent teeth and a tooth anatomy diagram.</desc>
  <style><![CDATA[
    #interactive-odontogram { font-family: Inter, Segoe UI, Arial, sans-serif; background: #f8fafc; }
    .main-title { font-size: 42px; font-weight: 800; letter-spacing: 4px; fill: #243044; }
    .subtitle { font-size: 14px; fill: #64748b; }
    .panel-bg { fill: #ffffff; stroke: #cbd5e1; stroke-width: 1; }
    .panel-title { font-size: 16px; font-weight: 800; text-anchor: middle; fill: #243044; letter-spacing: 1.2px; }
    .jaw-bg { fill: #fff1f2; stroke: #fecdd3; stroke-width: 2; }
    .palate { fill: #fda4af; opacity: .52; }
    .midline { stroke: #f43f5e; stroke-width: 1.6; opacity: .45; stroke-dasharray: 5 7; }
    .tooth { cursor: pointer; outline: none; }
    .tooth .crown { fill: #fff7ed; stroke: #a8a29e; stroke-width: 2.2; transition: fill .16s ease, stroke .16s ease, transform .16s ease; }
    .tooth .detail { fill: none; stroke: #b45309; stroke-width: 1.35; stroke-linecap: round; stroke-linejoin: round; opacity: .75; }
    .tooth .num circle { fill: #e2e8f0; stroke: #fff; stroke-width: 2; transition: transform .15s ease, fill .15s ease; }
    .tooth .num text { font-size: 10px; font-weight: 800; fill: #0f172a; text-anchor: middle; pointer-events: none; }
    .tooth.incisor .num circle { fill: #ec4899; }
    .tooth.canine .num circle { fill: #22c55e; }
    .tooth.premolar .num circle { fill: #f97316; }
    .tooth.molar .num circle { fill: #0ea5e9; }
    .tooth.incisor .num text, .tooth.canine .num text, .tooth.premolar .num text, .tooth.molar .num text { fill: #fff; }
    .tooth:hover .crown, .tooth:focus .crown { fill: #fde68a; stroke: #f59e0b; }
    .tooth:hover .num circle, .tooth:focus .num circle { transform: scale(1.12); }
    .tooth.selected .crown { fill: #fecaca; stroke: #ef4444; stroke-width: 3; }
    .tooth.selected .num circle { fill: #ef4444; }
    .label { fill: #64748b; font-size: 13px; font-weight: 700; }
    .arch-label { fill: #243044; font-size: 16px; font-weight: 800; text-anchor: middle; }
    .legend text { font-size: 13px; fill: #243044; }
    .legend circle { stroke: #fff; stroke-width: 2; }
    .status-box { fill: #0f172a; opacity: .9;  }
    #selectedLabel { fill: #fff; font-size: 15px; font-weight: 700; }
    /* Anatomy panel */
    .gum { fill: #ef4444; opacity: .82; }
    .bone { fill: #fef3c7; stroke: #d97706; stroke-width: 2; opacity: .9; }
    .enamel { fill: #fff7ed; }
    .dentin { fill: #f87171; opacity: .92; }
    .pulp { fill: #111827; opacity: .9; }
    .outline { fill: none; stroke: #374151; stroke-width: 3; stroke-linejoin: round; }
    .nerve { fill: none; stroke: #e0f2fe; stroke-width: 2; stroke-linecap: round; }
    .pin { fill: #111827; }
    .call { stroke: #475569; stroke-width: 1.4; }
    .calltxt { fill: #334155; font-size: 12px; font-weight: 700; }
    .side-label { fill: #334155; font-size: 13px; font-weight: 700; font-style: italic; }
  ]]></style>

  <rect width="1100" height="800" fill="#f8fafc"/>
  <text x="550" y="48" class="main-title" text-anchor="middle">ODONTOGRAM</text>
  <text x="550" y="72" class="subtitle" text-anchor="middle">Interactive FDI tooth chart • click / tap / Enter on a tooth</text>

  
  <g id="anatomy-panel" transform="translate(725 95)">
    <rect x="0" y="0" width="345" height="650" rx="22" class="panel-bg"/>
    <text x="172" y="34" class="panel-title">TOOTH ANATOMY</text>
    <g transform="translate(78 70)">
      <!-- gum/bone background -->
      <path d="M -30 135 C 25 108, 72 126, 105 116 C 155 101, 193 117, 250 135 L 250 398 L -30 398 Z" class="gum"/>
      <path d="M -30 252 C 20 235, 78 245, 128 236 C 178 227, 215 236, 250 252 L 250 398 L -30 398 Z" class="bone"/>
      <!-- crown + roots -->
      <path class="enamel" d="M 34 40 C 52 12, 101 21, 122 45 C 143 20, 192 10, 211 40 C 231 73, 205 147, 181 183 C 161 212, 152 258, 143 330 C 136 387, 121 389, 113 331 C 104 260, 94 214, 75 184 C 50 146, 14 76, 34 40 Z"/>
      <path class="dentin" d="M 54 65 C 76 45, 103 62, 122 84 C 141 61, 172 46, 192 66 C 207 105, 177 154, 161 181 C 145 210, 138 255, 132 311 C 128 346, 119 347, 114 312 C 107 256, 99 211, 83 181 C 67 153, 37 104, 54 65 Z"/>
      <path class="pulp" d="M 88 115 C 101 99, 115 108, 122 126 C 130 108, 145 99, 157 116 C 164 139, 145 174, 139 198 C 132 225, 128 263, 125 318 C 123 350, 120 350, 117 318 C 113 263, 109 225, 102 198 C 95 174, 79 139, 88 115 Z"/>
      <path class="nerve" d="M 122 150 C 119 205, 120 267, 121 342"/>
      <path class="nerve" d="M 104 145 C 101 187, 96 236, 89 302"/>
      <path class="nerve" d="M 142 145 C 146 187, 151 236, 157 302"/>
      <path class="outline" d="M 34 40 C 52 12, 101 21, 122 45 C 143 20, 192 10, 211 40 C 231 73, 205 147, 181 183 C 161 212, 152 258, 143 330 C 136 387, 121 389, 113 331 C 104 260, 94 214, 75 184 C 50 146, 14 76, 34 40 Z"/>
      <circle cx="204" cy="43" r="4" class="pin"/><line x1="207" y1="43" x2="278" y2="43" class="call"/><text x="284" y="47" class="calltxt">Enamel</text>
      <circle cx="184" cy="87" r="4" class="pin"/><line x1="188" y1="87" x2="278" y2="87" class="call"/><text x="284" y="91" class="calltxt">Dentin</text>
      <circle cx="148" cy="156" r="4" class="pin"/><line x1="152" y1="156" x2="278" y2="156" class="call"/><text x="284" y="160" class="calltxt">Pulp</text>
      <circle cx="160" cy="310" r="4" class="pin"/><line x1="164" y1="310" x2="278" y2="310" class="call"/><text x="284" y="314" class="calltxt">Root</text>
      <circle cx="229" cy="228" r="4" class="pin"/><line x1="233" y1="228" x2="278" y2="228" class="call"/><text x="284" y="232" class="calltxt">Gum</text>
      <circle cx="228" cy="348" r="4" class="pin"/><line x1="232" y1="348" x2="278" y2="348" class="call"/><text x="284" y="352" class="calltxt">Bone</text>
      <text x="-54" y="88" class="side-label">Crown</text>
      <text x="-48" y="305" class="side-label">Root</text>
    </g>
  </g>


  <g id="odontogram-panel" transform="translate(30 95)">
    <rect x="0" y="0" width="665" height="650" rx="22" class="panel-bg"/>
    <text x="332" y="34" class="panel-title">PERMANENT TEETH - FDI NUMBERING</text>
    <text x="35" y="342" class="label">Patient Right</text>
    <text x="544" y="342" class="label">Patient Left</text>
    <text x="355" y="88" class="arch-label">Upper / Maxillary</text>
    <text x="355" y="595" class="arch-label">Lower / Mandibular</text>
    <g transform="translate(-405 -95)">
      <!-- jaw backgrounds -->
      <path class="jaw-bg" d="M 521 390 C 546 175, 976 175, 1001 390 C 926 330, 594 330, 521 390 Z"/>
      <path class="palate" d="M 585 340 C 607 195, 914 195, 938 340 C 834 302, 689 302, 585 340 Z"/>
      <line class="midline" x1="760" y1="170" x2="760" y2="397"/>
      <path class="jaw-bg" d="M 521 470 C 596 530, 924 530, 1001 470 C 976 690, 546 690, 521 470 Z"/>
      <path class="palate" d="M 585 512 C 690 552, 832 552, 938 512 C 915 675, 606 675, 585 512 Z"/>
      <line class="midline" x1="760" y1="455" x2="760" y2="707"/>
      
    <g id="tooth-18" class="tooth molar" data-tooth="18" data-type="molar" role="button" tabindex="0" aria-label="Diş 18">
      <title>Diş 18 - molar</title>
      <g class="tooth-shape" transform="translate(547.8 411.0) rotate(-120.0)">
        <path class="crown" d="M -21.0,-16.0 C -24.0,-24.0 -25.0,-26.0 -18.0,-22.0 C -23.0,-30.0 -25.0,-26.0 -25.0,-17.0 L -25.0,14.0 C -25.0,29.0 -25.0,26.0 -17.0,24.0 C -23.0,30.0 -25.0,26.0 -25.0,17.0 C -25.0,39.0 25.0,39.0 25.0,17.0 C 25.0,26.0 27.0,30.0 17.0,24.0 C 25.0,26.0 25.0,29.0 25.0,14.0 L 25.0,-17.0 C 25.0,-26.0 23.0,-30.0 18.0,-22.0 C 25.0,-26.0 24.0,-24.0 21.0,-16.0 C 17.0,-28.0 -17.0,-28.0 -21.0,-16.0 Z"/>
        <path class="detail" d="M -12.5,-9.4 L 12.5,9.4 M 12.5,-9.4 L -12.5,9.4"/>
<ellipse class="detail" cx="0" cy="0" rx="9.0" ry="7.3"/>
      </g>
      <g class="num" transform="translate(542.8 367.0)">
        <circle r="14"/>
        <text dy="4">18</text>
      </g>
    </g>

    <g id="tooth-17" class="tooth molar" data-tooth="17" data-type="molar" role="button" tabindex="0" aria-label="Diş 17">
      <title>Diş 17 - molar</title>
      <g class="tooth-shape" transform="translate(522.3 369.2) rotate(-104.0)">
        <path class="crown" d="M -21.0,-16.0 C -24.0,-24.0 -25.0,-26.0 -18.0,-22.0 C -23.0,-30.0 -25.0,-26.0 -25.0,-17.0 L -25.0,14.0 C -25.0,29.0 -25.0,26.0 -17.0,24.0 C -23.0,30.0 -25.0,26.0 -25.0,17.0 C -25.0,39.0 25.0,39.0 25.0,17.0 C 25.0,26.0 27.0,30.0 17.0,24.0 C 25.0,26.0 25.0,29.0 25.0,14.0 L 25.0,-17.0 C 25.0,-26.0 23.0,-30.0 18.0,-22.0 C 25.0,-26.0 24.0,-24.0 21.0,-16.0 C 17.0,-28.0 -17.0,-28.0 -21.0,-16.0 Z"/>
        <path class="detail" d="M -12.5,-9.4 L 12.5,9.4 M 12.5,-9.4 L -12.5,9.4"/>
<ellipse class="detail" cx="0" cy="0" rx="9.0" ry="7.3"/>
      </g>
      <g class="num" transform="translate(517.3 325.2)">
        <circle r="14"/>
        <text dy="4">17</text>
      </g>
    </g>

    <g id="tooth-16" class="tooth molar" data-tooth="16" data-type="molar" role="button" tabindex="0" aria-label="Diş 16">
      <title>Diş 16 - molar</title>
      <g class="tooth-shape" transform="translate(515.1 324.3) rotate(-88.0)">
        <path class="crown" d="M -21.0,-16.0 C -24.0,-24.0 -25.0,-26.0 -18.0,-22.0 C -23.0,-30.0 -25.0,-26.0 -25.0,-17.0 L -25.0,14.0 C -25.0,29.0 -25.0,26.0 -17.0,24.0 C -23.0,30.0 -25.0,26.0 -25.0,17.0 C -25.0,39.0 25.0,39.0 25.0,17.0 C 25.0,26.0 27.0,30.0 17.0,24.0 C 25.0,26.0 25.0,29.0 25.0,14.0 L 25.0,-17.0 C 25.0,-26.0 23.0,-30.0 18.0,-22.0 C 25.0,-26.0 24.0,-24.0 21.0,-16.0 C 17.0,-28.0 -17.0,-28.0 -21.0,-16.0 Z"/>
        <path class="detail" d="M -12.5,-9.4 L 12.5,9.4 M 12.5,-9.4 L -12.5,9.4"/>
<ellipse class="detail" cx="0" cy="0" rx="9.0" ry="7.3"/>
      </g>
      <g class="num" transform="translate(510.1 280.3)">
        <circle r="14"/>
        <text dy="4">16</text>
      </g>
    </g>

    <g id="tooth-15" class="tooth premolar" data-tooth="15" data-type="premolar" role="button" tabindex="0" aria-label="Diş 15">
      <title>Diş 15 - premolar</title>
      <g class="tooth-shape" transform="translate(527.0 279.9) rotate(-72.0)">
        <path class="crown" d="M -15.0,-13.0 C -18.0,-21.0 -19.0,-23.0 -12.0,-19.0 C -17.0,-27.0 -19.0,-23.0 -19.0,-14.0 L -19.0,11.0 C -19.0,26.0 -19.0,23.0 -11.0,21.0 C -17.0,27.0 -19.0,23.0 -19.0,14.0 C -19.0,36.0 19.0,36.0 19.0,14.0 C 19.0,23.0 21.0,27.0 11.0,21.0 C 19.0,23.0 19.0,26.0 19.0,11.0 L 19.0,-14.0 C 19.0,-23.0 17.0,-27.0 12.0,-19.0 C 19.0,-23.0 18.0,-21.0 15.0,-13.0 C 11.0,-25.0 -11.0,-25.0 -15.0,-13.0 Z"/>
        <path class="detail" d="M 0,-12.9 L 0,12.9"/>
<path class="detail" d="M -8.4,0 L 8.4,0"/>
      </g>
      <g class="num" transform="translate(522.0 235.9)">
        <circle r="14"/>
        <text dy="4">15</text>
      </g>
    </g>

    <g id="tooth-14" class="tooth premolar" data-tooth="14" data-type="premolar" role="button" tabindex="0" aria-label="Diş 14">
      <title>Diş 14 - premolar</title>
      <g class="tooth-shape" transform="translate(556.9 239.4) rotate(-56.0)">
        <path class="crown" d="M -15.0,-13.0 C -18.0,-21.0 -19.0,-23.0 -12.0,-19.0 C -17.0,-27.0 -19.0,-23.0 -19.0,-14.0 L -19.0,11.0 C -19.0,26.0 -19.0,23.0 -11.0,21.0 C -17.0,27.0 -19.0,23.0 -19.0,14.0 C -19.0,36.0 19.0,36.0 19.0,14.0 C 19.0,23.0 21.0,27.0 11.0,21.0 C 19.0,23.0 19.0,26.0 19.0,11.0 L 19.0,-14.0 C 19.0,-23.0 17.0,-27.0 12.0,-19.0 C 19.0,-23.0 18.0,-21.0 15.0,-13.0 C 11.0,-25.0 -11.0,-25.0 -15.0,-13.0 Z"/>
        <path class="detail" d="M 0,-12.9 L 0,12.9"/>
<path class="detail" d="M -8.4,0 L 8.4,0"/>
      </g>
      <g class="num" transform="translate(551.9 195.4)">
        <circle r="14"/>
        <text dy="4">14</text>
      </g>
    </g>

    <g id="tooth-13" class="tooth canine" data-tooth="13" data-type="canine" role="button" tabindex="0" aria-label="Diş 13">
      <title>Diş 13 - canine</title>
      <g class="tooth-shape" transform="translate(602.5 205.9) rotate(-40.0)">
        <path class="crown" d="M -12.0,-16.0 C -15.0,-24.0 -16.0,-26.0 -9.0,-22.0 C -14.0,-30.0 -16.0,-26.0 -16.0,-17.0 L -16.0,14.0 C -16.0,29.0 -16.0,26.0 -8.0,24.0 C -14.0,30.0 -16.0,26.0 -16.0,17.0 C -16.0,39.0 16.0,39.0 16.0,17.0 C 16.0,26.0 18.0,30.0 8.0,24.0 C 16.0,26.0 16.0,29.0 16.0,14.0 L 16.0,-17.0 C 16.0,-26.0 14.0,-30.0 9.0,-22.0 C 16.0,-26.0 15.0,-24.0 12.0,-16.0 C 8.0,-28.0 -8.0,-28.0 -12.0,-16.0 Z"/>
        <path class="detail" d="M 0,-14.6 L -7.0,7.3 L 7.0,7.3 Z"/>
      </g>
      <g class="num" transform="translate(597.5 150.9)">
        <circle r="14"/>
        <text dy="4">13</text>
      </g>
    </g>

    <g id="tooth-12" class="tooth incisor" data-tooth="12" data-type="incisor" role="button" tabindex="0" aria-label="Diş 12">
      <title>Diş 12 - incisor</title>
      <g class="tooth-shape" transform="translate(660.3 182.0) rotate(-24.0)">
        <path class="crown" d="M -9.0,-13.0 C -12.0,-21.0 -13.0,-23.0 -6.0,-19.0 C -11.0,-27.0 -13.0,-23.0 -13.0,-14.0 L -13.0,11.0 C -13.0,26.0 -13.0,23.0 -5.0,21.0 C -11.0,27.0 -13.0,23.0 -13.0,14.0 C -13.0,36.0 13.0,36.0 13.0,14.0 C 13.0,23.0 15.0,27.0 5.0,21.0 C 13.0,23.0 13.0,26.0 13.0,11.0 L 13.0,-14.0 C 13.0,-23.0 11.0,-27.0 6.0,-19.0 C 13.0,-23.0 12.0,-21.0 9.0,-13.0 C 5.0,-25.0 -5.0,-25.0 -9.0,-13.0 Z"/>
        <path class="detail" d="M -6.5,0 C -2.6,-8.3 2.6,-8.3 6.5,0"/>
      </g>
      <g class="num" transform="translate(655.3 127.0)">
        <circle r="14"/>
        <text dy="4">12</text>
      </g>
    </g>

    <g id="tooth-11" class="tooth incisor" data-tooth="11" data-type="incisor" role="button" tabindex="0" aria-label="Diş 11">
      <title>Diş 11 - incisor</title>
      <g class="tooth-shape" transform="translate(725.9 169.6) rotate(-8.0)">
        <path class="crown" d="M -9.0,-13.0 C -12.0,-21.0 -13.0,-23.0 -6.0,-19.0 C -11.0,-27.0 -13.0,-23.0 -13.0,-14.0 L -13.0,11.0 C -13.0,26.0 -13.0,23.0 -5.0,21.0 C -11.0,27.0 -13.0,23.0 -13.0,14.0 C -13.0,36.0 13.0,36.0 13.0,14.0 C 13.0,23.0 15.0,27.0 5.0,21.0 C 13.0,23.0 13.0,26.0 13.0,11.0 L 13.0,-14.0 C 13.0,-23.0 11.0,-27.0 6.0,-19.0 C 13.0,-23.0 12.0,-21.0 9.0,-13.0 C 5.0,-25.0 -5.0,-25.0 -9.0,-13.0 Z"/>
        <path class="detail" d="M -6.5,0 C -2.6,-8.3 2.6,-8.3 6.5,0"/>
      </g>
      <g class="num" transform="translate(720.9 114.6)">
        <circle r="14"/>
        <text dy="4">11</text>
      </g>
    </g>

    <g id="tooth-21" class="tooth incisor" data-tooth="21" data-type="incisor" role="button" tabindex="0" aria-label="Diş 21">
      <title>Diş 21 - incisor</title>
      <g class="tooth-shape" transform="translate(794.1 169.6) rotate(8.0)">
        <path class="crown" d="M -9.0,-13.0 C -12.0,-21.0 -13.0,-23.0 -6.0,-19.0 C -11.0,-27.0 -13.0,-23.0 -13.0,-14.0 L -13.0,11.0 C -13.0,26.0 -13.0,23.0 -5.0,21.0 C -11.0,27.0 -13.0,23.0 -13.0,14.0 C -13.0,36.0 13.0,36.0 13.0,14.0 C 13.0,23.0 15.0,27.0 5.0,21.0 C 13.0,23.0 13.0,26.0 13.0,11.0 L 13.0,-14.0 C 13.0,-23.0 11.0,-27.0 6.0,-19.0 C 13.0,-23.0 12.0,-21.0 9.0,-13.0 C 5.0,-25.0 -5.0,-25.0 -9.0,-13.0 Z"/>
        <path class="detail" d="M -6.5,0 C -2.6,-8.3 2.6,-8.3 6.5,0"/>
      </g>
      <g class="num" transform="translate(799.1 114.6)">
        <circle r="14"/>
        <text dy="4">21</text>
      </g>
    </g>

    <g id="tooth-22" class="tooth incisor" data-tooth="22" data-type="incisor" role="button" tabindex="0" aria-label="Diş 22">
      <title>Diş 22 - incisor</title>
      <g class="tooth-shape" transform="translate(859.7 182.0) rotate(24.0)">
        <path class="crown" d="M -9.0,-13.0 C -12.0,-21.0 -13.0,-23.0 -6.0,-19.0 C -11.0,-27.0 -13.0,-23.0 -13.0,-14.0 L -13.0,11.0 C -13.0,26.0 -13.0,23.0 -5.0,21.0 C -11.0,27.0 -13.0,23.0 -13.0,14.0 C -13.0,36.0 13.0,36.0 13.0,14.0 C 13.0,23.0 15.0,27.0 5.0,21.0 C 13.0,23.0 13.0,26.0 13.0,11.0 L 13.0,-14.0 C 13.0,-23.0 11.0,-27.0 6.0,-19.0 C 13.0,-23.0 12.0,-21.0 9.0,-13.0 C 5.0,-25.0 -5.0,-25.0 -9.0,-13.0 Z"/>
        <path class="detail" d="M -6.5,0 C -2.6,-8.3 2.6,-8.3 6.5,0"/>
      </g>
      <g class="num" transform="translate(864.7 127.0)">
        <circle r="14"/>
        <text dy="4">22</text>
      </g>
    </g>

    <g id="tooth-23" class="tooth canine" data-tooth="23" data-type="canine" role="button" tabindex="0" aria-label="Diş 23">
      <title>Diş 23 - canine</title>
      <g class="tooth-shape" transform="translate(917.5 205.9) rotate(40.0)">
        <path class="crown" d="M -12.0,-16.0 C -15.0,-24.0 -16.0,-26.0 -9.0,-22.0 C -14.0,-30.0 -16.0,-26.0 -16.0,-17.0 L -16.0,14.0 C -16.0,29.0 -16.0,26.0 -8.0,24.0 C -14.0,30.0 -16.0,26.0 -16.0,17.0 C -16.0,39.0 16.0,39.0 16.0,17.0 C 16.0,26.0 18.0,30.0 8.0,24.0 C 16.0,26.0 16.0,29.0 16.0,14.0 L 16.0,-17.0 C 16.0,-26.0 14.0,-30.0 9.0,-22.0 C 16.0,-26.0 15.0,-24.0 12.0,-16.0 C 8.0,-28.0 -8.0,-28.0 -12.0,-16.0 Z"/>
        <path class="detail" d="M 0,-14.6 L -7.0,7.3 L 7.0,7.3 Z"/>
      </g>
      <g class="num" transform="translate(922.5 150.9)">
        <circle r="14"/>
        <text dy="4">23</text>
      </g>
    </g>

    <g id="tooth-24" class="tooth premolar" data-tooth="24" data-type="premolar" role="button" tabindex="0" aria-label="Diş 24">
      <title>Diş 24 - premolar</title>
      <g class="tooth-shape" transform="translate(963.1 239.4) rotate(56.0)">
        <path class="crown" d="M -15.0,-13.0 C -18.0,-21.0 -19.0,-23.0 -12.0,-19.0 C -17.0,-27.0 -19.0,-23.0 -19.0,-14.0 L -19.0,11.0 C -19.0,26.0 -19.0,23.0 -11.0,21.0 C -17.0,27.0 -19.0,23.0 -19.0,14.0 C -19.0,36.0 19.0,36.0 19.0,14.0 C 19.0,23.0 21.0,27.0 11.0,21.0 C 19.0,23.0 19.0,26.0 19.0,11.0 L 19.0,-14.0 C 19.0,-23.0 17.0,-27.0 12.0,-19.0 C 19.0,-23.0 18.0,-21.0 15.0,-13.0 C 11.0,-25.0 -11.0,-25.0 -15.0,-13.0 Z"/>
        <path class="detail" d="M 0,-12.9 L 0,12.9"/>
<path class="detail" d="M -8.4,0 L 8.4,0"/>
      </g>
      <g class="num" transform="translate(968.1 195.4)">
        <circle r="14"/>
        <text dy="4">24</text>
      </g>
    </g>

    <g id="tooth-25" class="tooth premolar" data-tooth="25" data-type="premolar" role="button" tabindex="0" aria-label="Diş 25">
      <title>Diş 25 - premolar</title>
      <g class="tooth-shape" transform="translate(993.0 279.9) rotate(72.0)">
        <path class="crown" d="M -15.0,-13.0 C -18.0,-21.0 -19.0,-23.0 -12.0,-19.0 C -17.0,-27.0 -19.0,-23.0 -19.0,-14.0 L -19.0,11.0 C -19.0,26.0 -19.0,23.0 -11.0,21.0 C -17.0,27.0 -19.0,23.0 -19.0,14.0 C -19.0,36.0 19.0,36.0 19.0,14.0 C 19.0,23.0 21.0,27.0 11.0,21.0 C 19.0,23.0 19.0,26.0 19.0,11.0 L 19.0,-14.0 C 19.0,-23.0 17.0,-27.0 12.0,-19.0 C 19.0,-23.0 18.0,-21.0 15.0,-13.0 C 11.0,-25.0 -11.0,-25.0 -15.0,-13.0 Z"/>
        <path class="detail" d="M 0,-12.9 L 0,12.9"/>
<path class="detail" d="M -8.4,0 L 8.4,0"/>
      </g>
      <g class="num" transform="translate(998.0 235.9)">
        <circle r="14"/>
        <text dy="4">25</text>
      </g>
    </g>

    <g id="tooth-26" class="tooth molar" data-tooth="26" data-type="molar" role="button" tabindex="0" aria-label="Diş 26">
      <title>Diş 26 - molar</title>
      <g class="tooth-shape" transform="translate(1004.9 324.3) rotate(88.0)">
        <path class="crown" d="M -21.0,-16.0 C -24.0,-24.0 -25.0,-26.0 -18.0,-22.0 C -23.0,-30.0 -25.0,-26.0 -25.0,-17.0 L -25.0,14.0 C -25.0,29.0 -25.0,26.0 -17.0,24.0 C -23.0,30.0 -25.0,26.0 -25.0,17.0 C -25.0,39.0 25.0,39.0 25.0,17.0 C 25.0,26.0 27.0,30.0 17.0,24.0 C 25.0,26.0 25.0,29.0 25.0,14.0 L 25.0,-17.0 C 25.0,-26.0 23.0,-30.0 18.0,-22.0 C 25.0,-26.0 24.0,-24.0 21.0,-16.0 C 17.0,-28.0 -17.0,-28.0 -21.0,-16.0 Z"/>
        <path class="detail" d="M -12.5,-9.4 L 12.5,9.4 M 12.5,-9.4 L -12.5,9.4"/>
<ellipse class="detail" cx="0" cy="0" rx="9.0" ry="7.3"/>
      </g>
      <g class="num" transform="translate(1009.9 280.3)">
        <circle r="14"/>
        <text dy="4">26</text>
      </g>
    </g>

    <g id="tooth-27" class="tooth molar" data-tooth="27" data-type="molar" role="button" tabindex="0" aria-label="Diş 27">
      <title>Diş 27 - molar</title>
      <g class="tooth-shape" transform="translate(997.7 369.2) rotate(104.0)">
        <path class="crown" d="M -21.0,-16.0 C -24.0,-24.0 -25.0,-26.0 -18.0,-22.0 C -23.0,-30.0 -25.0,-26.0 -25.0,-17.0 L -25.0,14.0 C -25.0,29.0 -25.0,26.0 -17.0,24.0 C -23.0,30.0 -25.0,26.0 -25.0,17.0 C -25.0,39.0 25.0,39.0 25.0,17.0 C 25.0,26.0 27.0,30.0 17.0,24.0 C 25.0,26.0 25.0,29.0 25.0,14.0 L 25.0,-17.0 C 25.0,-26.0 23.0,-30.0 18.0,-22.0 C 25.0,-26.0 24.0,-24.0 21.0,-16.0 C 17.0,-28.0 -17.0,-28.0 -21.0,-16.0 Z"/>
        <path class="detail" d="M -12.5,-9.4 L 12.5,9.4 M 12.5,-9.4 L -12.5,9.4"/>
<ellipse class="detail" cx="0" cy="0" rx="9.0" ry="7.3"/>
      </g>
      <g class="num" transform="translate(1002.7 325.2)">
        <circle r="14"/>
        <text dy="4">27</text>
      </g>
    </g>

    <g id="tooth-28" class="tooth molar" data-tooth="28" data-type="molar" role="button" tabindex="0" aria-label="Diş 28">
      <title>Diş 28 - molar</title>
      <g class="tooth-shape" transform="translate(972.2 411.0) rotate(120.0)">
        <path class="crown" d="M -21.0,-16.0 C -24.0,-24.0 -25.0,-26.0 -18.0,-22.0 C -23.0,-30.0 -25.0,-26.0 -25.0,-17.0 L -25.0,14.0 C -25.0,29.0 -25.0,26.0 -17.0,24.0 C -23.0,30.0 -25.0,26.0 -25.0,17.0 C -25.0,39.0 25.0,39.0 25.0,17.0 C 25.0,26.0 27.0,30.0 17.0,24.0 C 25.0,26.0 25.0,29.0 25.0,14.0 L 25.0,-17.0 C 25.0,-26.0 23.0,-30.0 18.0,-22.0 C 25.0,-26.0 24.0,-24.0 21.0,-16.0 C 17.0,-28.0 -17.0,-28.0 -21.0,-16.0 Z"/>
        <path class="detail" d="M -12.5,-9.4 L 12.5,9.4 M 12.5,-9.4 L -12.5,9.4"/>
<ellipse class="detail" cx="0" cy="0" rx="9.0" ry="7.3"/>
      </g>
      <g class="num" transform="translate(977.2 367.0)">
        <circle r="14"/>
        <text dy="4">28</text>
      </g>
    </g>

    <g id="tooth-48" class="tooth molar" data-tooth="48" data-type="molar" role="button" tabindex="0" aria-label="Diş 48">
      <title>Diş 48 - molar</title>
      <g class="tooth-shape" transform="translate(547.8 451.0) rotate(-60.0)">
        <path class="crown" d="M -21.0,-16.0 C -24.0,-24.0 -25.0,-26.0 -18.0,-22.0 C -23.0,-30.0 -25.0,-26.0 -25.0,-17.0 L -25.0,14.0 C -25.0,29.0 -25.0,26.0 -17.0,24.0 C -23.0,30.0 -25.0,26.0 -25.0,17.0 C -25.0,39.0 25.0,39.0 25.0,17.0 C 25.0,26.0 27.0,30.0 17.0,24.0 C 25.0,26.0 25.0,29.0 25.0,14.0 L 25.0,-17.0 C 25.0,-26.0 23.0,-30.0 18.0,-22.0 C 25.0,-26.0 24.0,-24.0 21.0,-16.0 C 17.0,-28.0 -17.0,-28.0 -21.0,-16.0 Z"/>
        <path class="detail" d="M -12.5,-9.4 L 12.5,9.4 M 12.5,-9.4 L -12.5,9.4"/>
<ellipse class="detail" cx="0" cy="0" rx="9.0" ry="7.3"/>
      </g>
      <g class="num" transform="translate(542.8 491.0)">
        <circle r="14"/>
        <text dy="4">48</text>
      </g>
    </g>

    <g id="tooth-47" class="tooth molar" data-tooth="47" data-type="molar" role="button" tabindex="0" aria-label="Diş 47">
      <title>Diş 47 - molar</title>
      <g class="tooth-shape" transform="translate(522.3 492.8) rotate(-76.0)">
        <path class="crown" d="M -21.0,-16.0 C -24.0,-24.0 -25.0,-26.0 -18.0,-22.0 C -23.0,-30.0 -25.0,-26.0 -25.0,-17.0 L -25.0,14.0 C -25.0,29.0 -25.0,26.0 -17.0,24.0 C -23.0,30.0 -25.0,26.0 -25.0,17.0 C -25.0,39.0 25.0,39.0 25.0,17.0 C 25.0,26.0 27.0,30.0 17.0,24.0 C 25.0,26.0 25.0,29.0 25.0,14.0 L 25.0,-17.0 C 25.0,-26.0 23.0,-30.0 18.0,-22.0 C 25.0,-26.0 24.0,-24.0 21.0,-16.0 C 17.0,-28.0 -17.0,-28.0 -21.0,-16.0 Z"/>
        <path class="detail" d="M -12.5,-9.4 L 12.5,9.4 M 12.5,-9.4 L -12.5,9.4"/>
<ellipse class="detail" cx="0" cy="0" rx="9.0" ry="7.3"/>
      </g>
      <g class="num" transform="translate(517.3 532.8)">
        <circle r="14"/>
        <text dy="4">47</text>
      </g>
    </g>

    <g id="tooth-46" class="tooth molar" data-tooth="46" data-type="molar" role="button" tabindex="0" aria-label="Diş 46">
      <title>Diş 46 - molar</title>
      <g class="tooth-shape" transform="translate(515.1 537.7) rotate(-92.0)">
        <path class="crown" d="M -21.0,-16.0 C -24.0,-24.0 -25.0,-26.0 -18.0,-22.0 C -23.0,-30.0 -25.0,-26.0 -25.0,-17.0 L -25.0,14.0 C -25.0,29.0 -25.0,26.0 -17.0,24.0 C -23.0,30.0 -25.0,26.0 -25.0,17.0 C -25.0,39.0 25.0,39.0 25.0,17.0 C 25.0,26.0 27.0,30.0 17.0,24.0 C 25.0,26.0 25.0,29.0 25.0,14.0 L 25.0,-17.0 C 25.0,-26.0 23.0,-30.0 18.0,-22.0 C 25.0,-26.0 24.0,-24.0 21.0,-16.0 C 17.0,-28.0 -17.0,-28.0 -21.0,-16.0 Z"/>
        <path class="detail" d="M -12.5,-9.4 L 12.5,9.4 M 12.5,-9.4 L -12.5,9.4"/>
<ellipse class="detail" cx="0" cy="0" rx="9.0" ry="7.3"/>
      </g>
      <g class="num" transform="translate(510.1 579.7)">
        <circle r="14"/>
        <text dy="4">46</text>
      </g>
    </g>

    <g id="tooth-45" class="tooth premolar" data-tooth="45" data-type="premolar" role="button" tabindex="0" aria-label="Diş 45">
      <title>Diş 45 - premolar</title>
      <g class="tooth-shape" transform="translate(527.0 582.1) rotate(-108.0)">
        <path class="crown" d="M -15.0,-13.0 C -18.0,-21.0 -19.0,-23.0 -12.0,-19.0 C -17.0,-27.0 -19.0,-23.0 -19.0,-14.0 L -19.0,11.0 C -19.0,26.0 -19.0,23.0 -11.0,21.0 C -17.0,27.0 -19.0,23.0 -19.0,14.0 C -19.0,36.0 19.0,36.0 19.0,14.0 C 19.0,23.0 21.0,27.0 11.0,21.0 C 19.0,23.0 19.0,26.0 19.0,11.0 L 19.0,-14.0 C 19.0,-23.0 17.0,-27.0 12.0,-19.0 C 19.0,-23.0 18.0,-21.0 15.0,-13.0 C 11.0,-25.0 -11.0,-25.0 -15.0,-13.0 Z"/>
        <path class="detail" d="M 0,-12.9 L 0,12.9"/>
<path class="detail" d="M -8.4,0 L 8.4,0"/>
      </g>
      <g class="num" transform="translate(522.0 624.1)">
        <circle r="14"/>
        <text dy="4">45</text>
      </g>
    </g>

    <g id="tooth-44" class="tooth premolar" data-tooth="44" data-type="premolar" role="button" tabindex="0" aria-label="Diş 44">
      <title>Diş 44 - premolar</title>
      <g class="tooth-shape" transform="translate(556.9 622.6) rotate(-124.0)">
        <path class="crown" d="M -15.0,-13.0 C -18.0,-21.0 -19.0,-23.0 -12.0,-19.0 C -17.0,-27.0 -19.0,-23.0 -19.0,-14.0 L -19.0,11.0 C -19.0,26.0 -19.0,23.0 -11.0,21.0 C -17.0,27.0 -19.0,23.0 -19.0,14.0 C -19.0,36.0 19.0,36.0 19.0,14.0 C 19.0,23.0 21.0,27.0 11.0,21.0 C 19.0,23.0 19.0,26.0 19.0,11.0 L 19.0,-14.0 C 19.0,-23.0 17.0,-27.0 12.0,-19.0 C 19.0,-23.0 18.0,-21.0 15.0,-13.0 C 11.0,-25.0 -11.0,-25.0 -15.0,-13.0 Z"/>
        <path class="detail" d="M 0,-12.9 L 0,12.9"/>
<path class="detail" d="M -8.4,0 L 8.4,0"/>
      </g>
      <g class="num" transform="translate(551.9 664.6)">
        <circle r="14"/>
        <text dy="4">44</text>
      </g>
    </g>

    <g id="tooth-43" class="tooth canine" data-tooth="43" data-type="canine" role="button" tabindex="0" aria-label="Diş 43">
      <title>Diş 43 - canine</title>
      <g class="tooth-shape" transform="translate(602.5 656.1) rotate(-140.0)">
        <path class="crown" d="M -12.0,-16.0 C -15.0,-24.0 -16.0,-26.0 -9.0,-22.0 C -14.0,-30.0 -16.0,-26.0 -16.0,-17.0 L -16.0,14.0 C -16.0,29.0 -16.0,26.0 -8.0,24.0 C -14.0,30.0 -16.0,26.0 -16.0,17.0 C -16.0,39.0 16.0,39.0 16.0,17.0 C 16.0,26.0 18.0,30.0 8.0,24.0 C 16.0,26.0 16.0,29.0 16.0,14.0 L 16.0,-17.0 C 16.0,-26.0 14.0,-30.0 9.0,-22.0 C 16.0,-26.0 15.0,-24.0 12.0,-16.0 C 8.0,-28.0 -8.0,-28.0 -12.0,-16.0 Z"/>
        <path class="detail" d="M 0,-14.6 L -7.0,7.3 L 7.0,7.3 Z"/>
      </g>
      <g class="num" transform="translate(597.5 698.1)">
        <circle r="14"/>
        <text dy="4">43</text>
      </g>
    </g>

    <g id="tooth-42" class="tooth incisor" data-tooth="42" data-type="incisor" role="button" tabindex="0" aria-label="Diş 42">
      <title>Diş 42 - incisor</title>
      <g class="tooth-shape" transform="translate(660.3 680.0) rotate(-156.0)">
        <path class="crown" d="M -9.0,-13.0 C -12.0,-21.0 -13.0,-23.0 -6.0,-19.0 C -11.0,-27.0 -13.0,-23.0 -13.0,-14.0 L -13.0,11.0 C -13.0,26.0 -13.0,23.0 -5.0,21.0 C -11.0,27.0 -13.0,23.0 -13.0,14.0 C -13.0,36.0 13.0,36.0 13.0,14.0 C 13.0,23.0 15.0,27.0 5.0,21.0 C 13.0,23.0 13.0,26.0 13.0,11.0 L 13.0,-14.0 C 13.0,-23.0 11.0,-27.0 6.0,-19.0 C 13.0,-23.0 12.0,-21.0 9.0,-13.0 C 5.0,-25.0 -5.0,-25.0 -9.0,-13.0 Z"/>
        <path class="detail" d="M -6.5,0 C -2.6,-8.3 2.6,-8.3 6.5,0"/>
      </g>
      <g class="num" transform="translate(655.3 722.0)">
        <circle r="14"/>
        <text dy="4">42</text>
      </g>
    </g>

    <g id="tooth-41" class="tooth incisor" data-tooth="41" data-type="incisor" role="button" tabindex="0" aria-label="Diş 41">
      <title>Diş 41 - incisor</title>
      <g class="tooth-shape" transform="translate(725.9 692.4) rotate(-172.0)">
        <path class="crown" d="M -9.0,-13.0 C -12.0,-21.0 -13.0,-23.0 -6.0,-19.0 C -11.0,-27.0 -13.0,-23.0 -13.0,-14.0 L -13.0,11.0 C -13.0,26.0 -13.0,23.0 -5.0,21.0 C -11.0,27.0 -13.0,23.0 -13.0,14.0 C -13.0,36.0 13.0,36.0 13.0,14.0 C 13.0,23.0 15.0,27.0 5.0,21.0 C 13.0,23.0 13.0,26.0 13.0,11.0 L 13.0,-14.0 C 13.0,-23.0 11.0,-27.0 6.0,-19.0 C 13.0,-23.0 12.0,-21.0 9.0,-13.0 C 5.0,-25.0 -5.0,-25.0 -9.0,-13.0 Z"/>
        <path class="detail" d="M -6.5,0 C -2.6,-8.3 2.6,-8.3 6.5,0"/>
      </g>
      <g class="num" transform="translate(720.9 734.4)">
        <circle r="14"/>
        <text dy="4">41</text>
      </g>
    </g>

    <g id="tooth-31" class="tooth incisor" data-tooth="31" data-type="incisor" role="button" tabindex="0" aria-label="Diş 31">
      <title>Diş 31 - incisor</title>
      <g class="tooth-shape" transform="translate(794.1 692.4) rotate(-188.0)">
        <path class="crown" d="M -9.0,-13.0 C -12.0,-21.0 -13.0,-23.0 -6.0,-19.0 C -11.0,-27.0 -13.0,-23.0 -13.0,-14.0 L -13.0,11.0 C -13.0,26.0 -13.0,23.0 -5.0,21.0 C -11.0,27.0 -13.0,23.0 -13.0,14.0 C -13.0,36.0 13.0,36.0 13.0,14.0 C 13.0,23.0 15.0,27.0 5.0,21.0 C 13.0,23.0 13.0,26.0 13.0,11.0 L 13.0,-14.0 C 13.0,-23.0 11.0,-27.0 6.0,-19.0 C 13.0,-23.0 12.0,-21.0 9.0,-13.0 C 5.0,-25.0 -5.0,-25.0 -9.0,-13.0 Z"/>
        <path class="detail" d="M -6.5,0 C -2.6,-8.3 2.6,-8.3 6.5,0"/>
      </g>
      <g class="num" transform="translate(799.1 734.4)">
        <circle r="14"/>
        <text dy="4">31</text>
      </g>
    </g>

    <g id="tooth-32" class="tooth incisor" data-tooth="32" data-type="incisor" role="button" tabindex="0" aria-label="Diş 32">
      <title>Diş 32 - incisor</title>
      <g class="tooth-shape" transform="translate(859.7 680.0) rotate(-204.0)">
        <path class="crown" d="M -9.0,-13.0 C -12.0,-21.0 -13.0,-23.0 -6.0,-19.0 C -11.0,-27.0 -13.0,-23.0 -13.0,-14.0 L -13.0,11.0 C -13.0,26.0 -13.0,23.0 -5.0,21.0 C -11.0,27.0 -13.0,23.0 -13.0,14.0 C -13.0,36.0 13.0,36.0 13.0,14.0 C 13.0,23.0 15.0,27.0 5.0,21.0 C 13.0,23.0 13.0,26.0 13.0,11.0 L 13.0,-14.0 C 13.0,-23.0 11.0,-27.0 6.0,-19.0 C 13.0,-23.0 12.0,-21.0 9.0,-13.0 C 5.0,-25.0 -5.0,-25.0 -9.0,-13.0 Z"/>
        <path class="detail" d="M -6.5,0 C -2.6,-8.3 2.6,-8.3 6.5,0"/>
      </g>
      <g class="num" transform="translate(864.7 722.0)">
        <circle r="14"/>
        <text dy="4">32</text>
      </g>
    </g>

    <g id="tooth-33" class="tooth canine" data-tooth="33" data-type="canine" role="button" tabindex="0" aria-label="Diş 33">
      <title>Diş 33 - canine</title>
      <g class="tooth-shape" transform="translate(917.5 656.1) rotate(-220.0)">
        <path class="crown" d="M -12.0,-16.0 C -15.0,-24.0 -16.0,-26.0 -9.0,-22.0 C -14.0,-30.0 -16.0,-26.0 -16.0,-17.0 L -16.0,14.0 C -16.0,29.0 -16.0,26.0 -8.0,24.0 C -14.0,30.0 -16.0,26.0 -16.0,17.0 C -16.0,39.0 16.0,39.0 16.0,17.0 C 16.0,26.0 18.0,30.0 8.0,24.0 C 16.0,26.0 16.0,29.0 16.0,14.0 L 16.0,-17.0 C 16.0,-26.0 14.0,-30.0 9.0,-22.0 C 16.0,-26.0 15.0,-24.0 12.0,-16.0 C 8.0,-28.0 -8.0,-28.0 -12.0,-16.0 Z"/>
        <path class="detail" d="M 0,-14.6 L -7.0,7.3 L 7.0,7.3 Z"/>
      </g>
      <g class="num" transform="translate(922.5 698.1)">
        <circle r="14"/>
        <text dy="4">33</text>
      </g>
    </g>

    <g id="tooth-34" class="tooth premolar" data-tooth="34" data-type="premolar" role="button" tabindex="0" aria-label="Diş 34">
      <title>Diş 34 - premolar</title>
      <g class="tooth-shape" transform="translate(963.1 622.6) rotate(-236.0)">
        <path class="crown" d="M -15.0,-13.0 C -18.0,-21.0 -19.0,-23.0 -12.0,-19.0 C -17.0,-27.0 -19.0,-23.0 -19.0,-14.0 L -19.0,11.0 C -19.0,26.0 -19.0,23.0 -11.0,21.0 C -17.0,27.0 -19.0,23.0 -19.0,14.0 C -19.0,36.0 19.0,36.0 19.0,14.0 C 19.0,23.0 21.0,27.0 11.0,21.0 C 19.0,23.0 19.0,26.0 19.0,11.0 L 19.0,-14.0 C 19.0,-23.0 17.0,-27.0 12.0,-19.0 C 19.0,-23.0 18.0,-21.0 15.0,-13.0 C 11.0,-25.0 -11.0,-25.0 -15.0,-13.0 Z"/>
        <path class="detail" d="M 0,-12.9 L 0,12.9"/>
<path class="detail" d="M -8.4,0 L 8.4,0"/>
      </g>
      <g class="num" transform="translate(968.1 664.6)">
        <circle r="14"/>
        <text dy="4">34</text>
      </g>
    </g>

    <g id="tooth-35" class="tooth premolar" data-tooth="35" data-type="premolar" role="button" tabindex="0" aria-label="Diş 35">
      <title>Diş 35 - premolar</title>
      <g class="tooth-shape" transform="translate(993.0 582.1) rotate(-252.0)">
        <path class="crown" d="M -15.0,-13.0 C -18.0,-21.0 -19.0,-23.0 -12.0,-19.0 C -17.0,-27.0 -19.0,-23.0 -19.0,-14.0 L -19.0,11.0 C -19.0,26.0 -19.0,23.0 -11.0,21.0 C -17.0,27.0 -19.0,23.0 -19.0,14.0 C -19.0,36.0 19.0,36.0 19.0,14.0 C 19.0,23.0 21.0,27.0 11.0,21.0 C 19.0,23.0 19.0,26.0 19.0,11.0 L 19.0,-14.0 C 19.0,-23.0 17.0,-27.0 12.0,-19.0 C 19.0,-23.0 18.0,-21.0 15.0,-13.0 C 11.0,-25.0 -11.0,-25.0 -15.0,-13.0 Z"/>
        <path class="detail" d="M 0,-12.9 L 0,12.9"/>
<path class="detail" d="M -8.4,0 L 8.4,0"/>
      </g>
      <g class="num" transform="translate(998.0 624.1)">
        <circle r="14"/>
        <text dy="4">35</text>
      </g>
    </g>

    <g id="tooth-36" class="tooth molar" data-tooth="36" data-type="molar" role="button" tabindex="0" aria-label="Diş 36">
      <title>Diş 36 - molar</title>
      <g class="tooth-shape" transform="translate(1004.9 537.7) rotate(-268.0)">
        <path class="crown" d="M -21.0,-16.0 C -24.0,-24.0 -25.0,-26.0 -18.0,-22.0 C -23.0,-30.0 -25.0,-26.0 -25.0,-17.0 L -25.0,14.0 C -25.0,29.0 -25.0,26.0 -17.0,24.0 C -23.0,30.0 -25.0,26.0 -25.0,17.0 C -25.0,39.0 25.0,39.0 25.0,17.0 C 25.0,26.0 27.0,30.0 17.0,24.0 C 25.0,26.0 25.0,29.0 25.0,14.0 L 25.0,-17.0 C 25.0,-26.0 23.0,-30.0 18.0,-22.0 C 25.0,-26.0 24.0,-24.0 21.0,-16.0 C 17.0,-28.0 -17.0,-28.0 -21.0,-16.0 Z"/>
        <path class="detail" d="M -12.5,-9.4 L 12.5,9.4 M 12.5,-9.4 L -12.5,9.4"/>
<ellipse class="detail" cx="0" cy="0" rx="9.0" ry="7.3"/>
      </g>
      <g class="num" transform="translate(1009.9 579.7)">
        <circle r="14"/>
        <text dy="4">36</text>
      </g>
    </g>

    <g id="tooth-37" class="tooth molar" data-tooth="37" data-type="molar" role="button" tabindex="0" aria-label="Diş 37">
      <title>Diş 37 - molar</title>
      <g class="tooth-shape" transform="translate(997.7 492.8) rotate(-284.0)">
        <path class="crown" d="M -21.0,-16.0 C -24.0,-24.0 -25.0,-26.0 -18.0,-22.0 C -23.0,-30.0 -25.0,-26.0 -25.0,-17.0 L -25.0,14.0 C -25.0,29.0 -25.0,26.0 -17.0,24.0 C -23.0,30.0 -25.0,26.0 -25.0,17.0 C -25.0,39.0 25.0,39.0 25.0,17.0 C 25.0,26.0 27.0,30.0 17.0,24.0 C 25.0,26.0 25.0,29.0 25.0,14.0 L 25.0,-17.0 C 25.0,-26.0 23.0,-30.0 18.0,-22.0 C 25.0,-26.0 24.0,-24.0 21.0,-16.0 C 17.0,-28.0 -17.0,-28.0 -21.0,-16.0 Z"/>
        <path class="detail" d="M -12.5,-9.4 L 12.5,9.4 M 12.5,-9.4 L -12.5,9.4"/>
<ellipse class="detail" cx="0" cy="0" rx="9.0" ry="7.3"/>
      </g>
      <g class="num" transform="translate(1002.7 532.8)">
        <circle r="14"/>
        <text dy="4">37</text>
      </g>
    </g>

    <g id="tooth-38" class="tooth molar" data-tooth="38" data-type="molar" role="button" tabindex="0" aria-label="Diş 38">
      <title>Diş 38 - molar</title>
      <g class="tooth-shape" transform="translate(972.2 451.0) rotate(-300.0)">
        <path class="crown" d="M -21.0,-16.0 C -24.0,-24.0 -25.0,-26.0 -18.0,-22.0 C -23.0,-30.0 -25.0,-26.0 -25.0,-17.0 L -25.0,14.0 C -25.0,29.0 -25.0,26.0 -17.0,24.0 C -23.0,30.0 -25.0,26.0 -25.0,17.0 C -25.0,39.0 25.0,39.0 25.0,17.0 C 25.0,26.0 27.0,30.0 17.0,24.0 C 25.0,26.0 25.0,29.0 25.0,14.0 L 25.0,-17.0 C 25.0,-26.0 23.0,-30.0 18.0,-22.0 C 25.0,-26.0 24.0,-24.0 21.0,-16.0 C 17.0,-28.0 -17.0,-28.0 -21.0,-16.0 Z"/>
        <path class="detail" d="M -12.5,-9.4 L 12.5,9.4 M 12.5,-9.4 L -12.5,9.4"/>
<ellipse class="detail" cx="0" cy="0" rx="9.0" ry="7.3"/>
      </g>
      <g class="num" transform="translate(977.2 491.0)">
        <circle r="14"/>
        <text dy="4">38</text>
      </g>
    </g>
    </g>

    <g class="legend" transform="translate(35 555)">
      <circle cx="0" cy="0" r="8" fill="#ec4899"/><text x="16" y="5">Incisors</text>
      <circle cx="102" cy="0" r="8" fill="#22c55e"/><text x="118" y="5">Canines</text>
      <circle cx="205" cy="0" r="8" fill="#f97316"/><text x="221" y="5">Premolars</text>
      <circle cx="330" cy="0" r="8" fill="#0ea5e9"/><text x="346" y="5">Molars</text>
    </g>
    <g transform="translate(392 542)">
      <rect width="226" height="42" rx="12" class="status-box"/>
      <text id="selectedLabel" x="113" y="27" text-anchor="middle">Selected: none</text>
    </g>
  </g></svg>
